<svg width="104" height="24" viewBox="0 0 104 24" fill="none" xmlns="http://www.w3.org/2000/svg">
<path d="M31.2456 0.573242V22.5578H39.566C41.8234 22.5578 43.65 21.8817 45.0458 20.5295C46.4417 19.1772 47.1396 17.4051 47.1396 15.2132V12.3015C47.1396 10.066 46.469 8.28841 45.1276 6.96889C43.7972 5.63846 41.8997 4.97324 39.4351 4.97324H31.2572L28.9697 8.4629H39.287C40.552 8.4629 41.5017 8.71371 42.1996 9.35712C42.8975 9.98962 43.2465 10.9493 43.2465 12.2361V15.3604C43.2465 16.5709 42.903 17.5087 42.216 18.1739C41.5398 18.8392 40.5747 19.0836 39.3206 19.0836H35.1904V0.573242H31.2456Z" fill="white" fill-opacity="0.8"/>
<path d="M48.3535 22.5576V0.557617H52.1466V22.5576H48.3535Z" fill="white" fill-opacity="0.8"/>
<path d="M59.3473 22.5572C57.5479 22.5572 56.0975 22.0938 54.9961 21.1668C53.9056 20.229 53.3604 19.0185 53.3604 17.5354V17.1265C53.3604 15.5888 53.8947 14.3893 54.9634 13.5278C56.0321 12.6663 57.5643 12.2355 59.5599 12.2355H65.5817V11.9411C65.5817 10.7633 65.2764 9.87453 64.6657 9.27475C64.0659 8.66406 63.0408 8.35871 61.5904 8.35871H56.8467L58.5152 4.97266H61.8358C64.1586 4.97266 65.9798 5.5888 67.2993 6.82108C68.6297 8.05337 69.2949 9.80365 69.2949 12.0719V19.4493L65.9252 22.5572H59.3473ZM60.296 19.5147H65.5817V15.1145H60.018C58.0332 15.1145 57.0408 15.7742 57.0408 17.0938V17.29C57.0408 17.9989 57.3135 18.5496 57.8587 18.9422C58.4149 19.3239 59.2273 19.5147 60.296 19.5147Z" fill="white" fill-opacity="0.8"/>
<path d="M76.4957 22.5572C74.6964 22.5572 73.246 22.0938 72.1446 21.1668C71.054 20.229 70.5088 19.0185 70.5088 17.5354V17.1265C70.5088 15.5888 71.0431 14.3893 72.1118 13.5278C73.1806 12.6663 74.7127 12.2355 76.7084 12.2355H82.7302V11.9411C82.7302 10.7633 82.4248 9.87453 81.8141 9.27475C81.2143 8.66406 80.1893 8.35871 78.7389 8.35871H73.9951L75.6636 4.97266H78.9842C81.307 4.97266 83.1282 5.5888 84.4477 6.82108C85.7782 8.05337 86.4434 9.80365 86.4434 12.0719V19.4493L83.0737 22.5572H76.4957ZM77.4445 19.5147H82.7302V15.1145H77.1664C75.1817 15.1145 74.1893 15.7742 74.1893 17.0938V17.29C74.1893 17.9989 74.4619 18.5496 75.0072 18.9422C75.5633 19.3239 76.3758 19.5147 77.4445 19.5147Z" fill="white" fill-opacity="0.8"/>
<path d="M95.5744 22.5572C93.1316 22.5572 91.2014 21.892 89.7837 20.5616C88.3661 19.2203 87.6572 17.35 87.6572 14.9509V12.6772C87.6572 10.3325 88.3879 8.46231 89.8492 7.06645C91.3214 5.67059 93.2298 4.97266 95.5744 4.97266H103.504L101.77 8.39143H95.8034C94.4511 8.39143 93.4043 8.74584 92.6627 9.45468C91.9211 10.1526 91.5504 11.2268 91.5504 12.6772V14.7873C91.5504 16.2159 91.9321 17.301 92.6954 18.0425C93.4588 18.7732 94.5057 19.1385 95.8361 19.1385H102.768V22.5572H95.5744Z" fill="white" fill-opacity="0.8"/>
<path fill-rule="evenodd" clip-rule="evenodd" d="M0 16.6223V21.5025C0 22.3932 0.722026 23.1152 1.61269 23.1152H21.5025C22.3932 23.1152 23.1152 22.3932 23.1152 21.5025V1.07513C23.1152 0.48135 22.6339 0 22.0401 0H13.6685C13.1832 0 12.7238 0.218515 12.4175 0.594942L0.482278 15.2653C0.170318 15.6488 0 16.128 0 16.6223ZM15.7962 5.00269L14.1568 11.1506C14.0658 11.4918 14.323 11.8266 14.6762 11.8266H19.9911C20.4142 11.8266 20.6714 12.2926 20.446 12.6506L16.7118 18.5814C16.515 18.8941 16.1714 19.0837 15.802 19.0837H5.01415C4.56366 19.0837 4.31298 18.5629 4.59402 18.2108L15.3265 4.76576C15.5081 4.53828 15.8712 4.72145 15.7962 5.00269Z" fill="#F37D2E"/>
</svg>
